<svg width="44" height="76" viewBox="0 0 44 76" fill="none" xmlns="http://www.w3.org/2000/svg">
<path d="M36.9463 1.17383C38.4672 1.2094 39.7919 1.79332 40.8848 2.89062C41.9758 3.98614 42.5487 5.29874 42.5518 6.79492C42.5548 8.29373 41.9808 9.60824 40.8838 10.7041L13.5293 38.0254L40.8838 65.3467C41.9831 66.4449 42.5419 67.7667 42.5059 69.2734C42.47 70.7662 41.8813 72.0729 40.7881 73.1621C39.691 74.2549 38.3754 74.8271 36.877 74.8271C35.3789 74.827 34.0646 74.2554 32.9678 73.1631L3.69727 44.0225L3.69629 44.0215C2.8608 43.187 2.22569 42.2392 1.80176 41.1807C1.3855 40.1413 1.17285 39.0879 1.17285 38.0254C1.17285 36.9629 1.3855 35.9095 1.80176 34.8701C2.22569 33.8116 2.8608 32.8638 3.69629 32.0293L32.9668 2.79395C34.0711 1.69113 35.4122 1.13799 36.9463 1.17383Z" fill="white" stroke="#7A025A" stroke-width="1.65517"/>
</svg>
