<svg width="68" height="76" viewBox="0 0 68 76" fill="none" xmlns="http://www.w3.org/2000/svg">
<path d="M6.12891 1.6123H15.3213C16.7222 1.6123 17.9424 2.1331 19.0166 3.22852C20.0908 4.32405 20.6074 5.57531 20.6074 7.01953V69.5195C20.6074 70.9638 20.0908 72.215 19.0166 73.3105C17.9424 74.406 16.7222 74.9268 15.3213 74.9268H6.12891C4.72804 74.9268 3.50871 74.4059 2.43457 73.3105C1.36023 72.215 0.842773 70.9639 0.842773 69.5195V7.01953C0.842773 5.57519 1.36023 4.32412 2.43457 3.22852C3.50871 2.13315 4.72804 1.6123 6.12891 1.6123ZM52.0938 1.6123H61.2871C62.688 1.61232 63.9073 2.13311 64.9814 3.22852C66.0557 4.3241 66.5732 5.57522 66.5732 7.01953V69.5195C66.5732 70.9639 66.0557 72.215 64.9814 73.3105C63.9073 74.406 62.688 74.9267 61.2871 74.9268H52.0938C50.6929 74.9267 49.4735 74.4059 48.3994 73.3105C47.3252 72.215 46.8076 70.9638 46.8076 69.5195V7.01953C46.8076 5.57525 47.3252 4.32409 48.3994 3.22852C49.4735 2.13315 50.6929 1.61236 52.0938 1.6123Z" fill="white" stroke="#7A025A" stroke-width="1.68539"/>
</svg>
