<svg width="21" height="78" viewBox="0 0 21 78" fill="none" xmlns="http://www.w3.org/2000/svg">
<path d="M10.5049 25.8164C12.4893 25.8134 14.2099 26.4953 15.6172 27.8555C17.025 29.2163 17.741 30.8917 17.7354 32.833V69.833C17.7354 71.7781 17.0212 73.4551 15.6182 74.8145C14.2155 76.1734 12.4943 76.8523 10.5059 76.8496V76.8506C8.5204 76.8506 6.80089 76.1709 5.39844 74.8154C3.99488 73.4587 3.27866 71.7818 3.27539 69.835V32.833C3.27547 30.8875 3.99204 29.212 5.39844 27.8555C6.80291 26.5009 8.52212 25.8195 10.5049 25.8164ZM10.5039 1.14941C13.0578 1.14346 15.2741 2.03437 17.1064 3.80566C18.9396 5.5778 19.8717 7.73264 19.8623 10.2256C19.8529 12.7132 18.9228 14.8657 17.1094 16.6396C15.2921 18.4172 13.0744 19.305 10.5059 19.2939V19.2949L10.5039 19.2939L10.502 19.2949V19.2939C7.94647 19.2931 5.73303 18.4056 3.90918 16.6426C2.08383 14.8779 1.15262 12.7232 1.14941 10.2236C1.14628 7.72209 2.0787 5.5671 3.91113 3.80469C5.74029 2.0455 7.95309 1.15541 10.5039 1.14941Z" fill="white" stroke="#7A025A" stroke-width="1.70115"/>
</svg>
