<svg width="82" height="74" viewBox="0 0 82 74" fill="none" xmlns="http://www.w3.org/2000/svg">
<path d="M74.0596 58.8232C75.8571 58.8242 77.5858 59.5173 78.8867 60.7578C80.1875 61.9983 80.9615 63.6919 81.0479 65.4873C81.1342 67.2828 80.5264 69.0427 79.3506 70.4023C78.1747 71.762 76.5207 72.6175 74.7314 72.791L74.7119 72.793L74.6914 72.7939L74.0986 72.8223L74.0791 72.8232H8.17578C6.3782 72.8223 4.64959 72.1301 3.34863 70.8896C2.04774 69.6492 1.27394 67.9556 1.1875 66.1602C1.10111 64.3646 1.70884 62.6039 2.88477 61.2441C4.06064 59.8846 5.71477 59.0299 7.50391 58.8564L7.52344 58.8545L7.54395 58.8535L8.13672 58.8242L8.15625 58.8232H74.0596ZM74.0586 30C75.9151 30 77.696 30.7371 79.0088 32.0498C80.3215 33.3626 81.0586 35.1435 81.0586 37C81.0586 38.8565 80.3215 40.6374 79.0088 41.9502C77.696 43.2629 75.9151 44 74.0586 44H8.17676C6.32031 44 4.5393 43.2629 3.22656 41.9502C1.91381 40.6374 1.17676 38.8565 1.17676 37C1.17676 35.1435 1.91381 33.3626 3.22656 32.0498C4.5393 30.7371 6.32031 30 8.17676 30H74.0586ZM74.0586 1.17676C75.9151 1.17676 77.696 1.91381 79.0088 3.22656C80.3215 4.53931 81.0586 6.32025 81.0586 8.17676C81.0585 10.0331 80.3213 11.8133 79.0088 13.126C77.696 14.4387 75.9151 15.1768 74.0586 15.1768H8.17676C6.32024 15.1768 4.53932 14.4387 3.22656 13.126C1.914 11.8133 1.17683 10.0331 1.17676 8.17676C1.17676 6.32024 1.91381 4.53932 3.22656 3.22656C4.53932 1.91381 6.32024 1.17676 8.17676 1.17676H74.0586Z" fill="white" stroke="#7A025A" stroke-width="1.64706"/>
</svg>
